# xmcd
#
# Track frame offsets:
# 187
# 21502
# 42125
# 64457
# 81702
# 99962
# 118982
# 136905
# 156130
# 174967
# 193947
# 213435
# 237130
# 260915
# 286720
#
# Disc length: 4116 seconds
#
# Revision: 0
# Processed by: cddbd v1.5.1PL0 Copyright (c) Steve Scherf et al.
# Submitted via: MacMP3 Pro 5.0 (http://mp3.act2.co.jp/)
#
DISCID=df10120f
DTITLE=Caron Wheeler - UK Blak
DYEAR=1900
DGENRE=
TTITLE0=UK Blak
TTITLE1=Livin' in the light (The Rwmix)
TTITLE2=Blue (is the color of pain)
TTITLE3=No regrets
TTITLE4=This is mine
TTITLE5=Don't quit
TTITLE6=Jamaica
TTITLE7=Never lonely
TTITLE8=Song for you
TTITLE9=Somewhere
TTITLE10=Enchanted
TTITLE11=Proud
TTITLE12=Kama yo
TTITLE13=Livin'  in the light
TTITLE14=Burn inside
EXTD=
EXTT0=
EXTT1=
EXTT2=
EXTT3=
EXTT4=
EXTT5=
EXTT6=
EXTT7=
EXTT8=
EXTT9=
EXTT10=
EXTT11=
EXTT12=
EXTT13=
EXTT14=
PLAYORDER=
